<svg version="1.2" baseProfile="tiny" id="Layer_1" xmlns="http://www.w3.org/2000/svg" xmlns:xlink="http://www.w3.org/1999/xlink"
     x="0px" y="0px" viewBox="0 0 67.12 75.44" overflow="visible" xml:space="preserve">
<path d="M34.06,0.04c2.74,7.62,4.03,15.77,6.31,23.63c0.09,0.35,0.66,0.3,0.56,0.72c-0.13,0.72,0.28,0.75,0.87,0.63
	c0.12,0.17,0.24,0.33,0.36,0.49c0.04-0.02,0.08-0.04,0.12-0.06c-0.1-0.25,0.09-0.63,0.28-0.68c4.2-0.54,8.28-1.97,12.44-2.83
	c1.71-0.04,14.58-5.39,11.67-1.42c-6.13,5.56-12.32,11.24-18.3,16.98C53.05,42.96,58.78,48.1,64,53.24
	c11.94,9.6-19.62-4.39-22.55-3.23c-1.73,1.69-1.38,4.9-2.28,7.12c-1.31,5.94-2.91,11.65-4.75,17.4c-1.77,3.73-2.99-5.8-3.42-6.78
	c-1.36-3.69-2.22-7.96-3.28-11.89c-0.95-1.15-0.86-6.23-2.49-5.98c-8.22,2.26-16.69,6.12-25.21,5.88
	c6.16-6.11,12.49-12.07,18.53-18.43c1.2-1.76-2.24-3.42-3.17-4.79c-4.46-4.74-9.18-9.19-13.84-13.73c-0.62-0.12-1.62-1.61-0.49-1.39
	c0.84,0.06,1.68,0.36,2.53,0.55c8.03,1.27,15.46,4.78,23.32,6.9c1.43-3.17,2.1-7.37,3.07-10.93c1.4-4.49,0.41-10.27,3.52-13.9
	C33.68,0.04,33.87,0.04,34.06,0.04z"/>
</svg>
